<svg width="95" height="49" viewBox="0 0 95 49" fill="none" xmlns="http://www.w3.org/2000/svg">
<path d="M5.41777 19.6825V6.05049H0.0417703V2.88249H14.6818V6.05049H9.30577V19.6825H5.41777ZM24.3577 6.5785C25.3817 6.5785 26.2937 6.78649 27.0937 7.20249C27.9097 7.60249 28.5497 8.22649 29.0137 9.07449C29.4777 9.90649 29.7097 10.9785 29.7097 12.2905V19.6825H25.9657V12.8665C25.9657 11.8265 25.7337 11.0585 25.2697 10.5625C24.8217 10.0665 24.1817 9.81849 23.3497 9.81849C22.7577 9.81849 22.2217 9.94649 21.7417 10.2025C21.2777 10.4425 20.9097 10.8185 20.6377 11.3305C20.3817 11.8425 20.2537 12.4985 20.2537 13.2985V19.6825H16.5097V1.87449H20.2537V10.3465L19.4137 9.26649C19.8777 8.40249 20.5417 7.73849 21.4057 7.27449C22.2697 6.81049 23.2537 6.5785 24.3577 6.5785ZM39.6052 19.8745C38.1332 19.8745 36.8372 19.5865 35.7172 19.0105C34.6132 18.4345 33.7572 17.6505 33.1492 16.6585C32.5412 15.6505 32.2372 14.5065 32.2372 13.2265C32.2372 11.9305 32.5332 10.7865 33.1252 9.79449C33.7332 8.78649 34.5572 8.00249 35.5972 7.44249C36.6372 6.86649 37.8132 6.5785 39.1252 6.5785C40.3892 6.5785 41.5252 6.85049 42.5332 7.39449C43.5572 7.92249 44.3652 8.69049 44.9572 9.69849C45.5492 10.6905 45.8452 11.8825 45.8452 13.2745C45.8452 13.4185 45.8372 13.5865 45.8212 13.7785C45.8052 13.9545 45.7892 14.1225 45.7732 14.2825H35.2852V12.0985H43.8052L42.3652 12.7465C42.3652 12.0745 42.2292 11.4905 41.9572 10.9945C41.6852 10.4985 41.3092 10.1145 40.8292 9.84249C40.3492 9.55449 39.7892 9.41049 39.1492 9.41049C38.5092 9.41049 37.9412 9.55449 37.4452 9.84249C36.9652 10.1145 36.5892 10.5065 36.3172 11.0185C36.0452 11.5145 35.9092 12.1065 35.9092 12.7945V13.3705C35.9092 14.0745 36.0612 14.6985 36.3652 15.2425C36.6852 15.7705 37.1252 16.1785 37.6852 16.4665C38.2612 16.7385 38.9332 16.8745 39.7012 16.8745C40.3892 16.8745 40.9892 16.7705 41.5012 16.5625C42.0292 16.3545 42.5092 16.0425 42.9412 15.6265L44.9332 17.7865C44.3412 18.4585 43.5972 18.9785 42.7012 19.3465C41.8052 19.6985 40.7732 19.8745 39.6052 19.8745ZM55.3987 19.6825V2.88249H63.6067C65.7187 2.88249 67.3027 3.28249 68.3587 4.08249C69.4307 4.88249 69.9667 5.93849 69.9667 7.25049C69.9667 8.13049 69.7507 8.89849 69.3187 9.55449C68.8867 10.1945 68.2947 10.6905 67.5427 11.0425C66.7907 11.3945 65.9267 11.5705 64.9507 11.5705L65.4067 10.5865C66.4627 10.5865 67.3987 10.7625 68.2147 11.1145C69.0307 11.4505 69.6627 11.9545 70.1107 12.6265C70.5747 13.2985 70.8067 14.1225 70.8067 15.0985C70.8067 16.5385 70.2387 17.6665 69.1027 18.4825C67.9667 19.2825 66.2947 19.6825 64.0867 19.6825H55.3987ZM59.2627 16.7545H63.7987C64.8067 16.7545 65.5667 16.5945 66.0787 16.2745C66.6067 15.9385 66.8707 15.4105 66.8707 14.6905C66.8707 13.9865 66.6067 13.4665 66.0787 13.1305C65.5667 12.7785 64.8067 12.6025 63.7987 12.6025H58.9747V9.77049H63.1267C64.0707 9.77049 64.7907 9.61049 65.2867 9.29049C65.7987 8.95449 66.0547 8.45049 66.0547 7.77849C66.0547 7.12249 65.7987 6.63449 65.2867 6.31449C64.7907 5.97849 64.0707 5.81049 63.1267 5.81049H59.2627V16.7545ZM73.4863 19.6825V6.77049H77.2303V19.6825H73.4863ZM75.3583 4.97049C74.6703 4.97049 74.1103 4.77049 73.6783 4.37049C73.2463 3.97049 73.0303 3.47449 73.0303 2.88249C73.0303 2.29049 73.2463 1.79449 73.6783 1.39449C74.1103 0.994494 74.6703 0.794494 75.3583 0.794494C76.0463 0.794494 76.6063 0.986494 77.0383 1.37049C77.4703 1.73849 77.6863 2.21849 77.6863 2.81049C77.6863 3.43449 77.4703 3.95449 77.0383 4.37049C76.6223 4.77049 76.0623 4.97049 75.3583 4.97049ZM86.777 24.5305C85.561 24.5305 84.385 24.3785 83.249 24.0745C82.129 23.7865 81.193 23.3465 80.441 22.7545L81.929 20.0665C82.473 20.5145 83.161 20.8665 83.993 21.1225C84.841 21.3945 85.673 21.5305 86.489 21.5305C87.817 21.5305 88.777 21.2345 89.369 20.6425C89.977 20.0505 90.281 19.1705 90.281 18.0025V16.0585L90.521 12.8185L90.473 9.55449V6.77049H94.025V17.5225C94.025 19.9225 93.401 21.6905 92.153 22.8265C90.905 23.9625 89.113 24.5305 86.777 24.5305ZM86.201 19.0585C85.001 19.0585 83.913 18.8025 82.937 18.2905C81.977 17.7625 81.201 17.0345 80.609 16.1065C80.033 15.1625 79.745 14.0665 79.745 12.8185C79.745 11.5545 80.033 10.4585 80.609 9.53049C81.201 8.58649 81.977 7.85849 82.937 7.3465C83.913 6.8345 85.001 6.5785 86.201 6.5785C87.289 6.5785 88.249 6.8025 89.081 7.25049C89.913 7.68249 90.561 8.36249 91.025 9.29049C91.489 10.2025 91.721 11.3785 91.721 12.8185C91.721 14.2425 91.489 15.4185 91.025 16.3465C90.561 17.2585 89.913 17.9385 89.081 18.3865C88.249 18.8345 87.289 19.0585 86.201 19.0585ZM86.945 15.9865C87.601 15.9865 88.185 15.8585 88.697 15.6025C89.209 15.3305 89.609 14.9545 89.897 14.4745C90.185 13.9945 90.329 13.4425 90.329 12.8185C90.329 12.1785 90.185 11.6265 89.897 11.1625C89.609 10.6825 89.209 10.3145 88.697 10.0585C88.185 9.78649 87.601 9.65049 86.945 9.65049C86.289 9.65049 85.705 9.78649 85.193 10.0585C84.681 10.3145 84.273 10.6825 83.969 11.1625C83.681 11.6265 83.537 12.1785 83.537 12.8185C83.537 13.4425 83.681 13.9945 83.969 14.4745C84.273 14.9545 84.681 15.3305 85.193 15.6025C85.705 15.8585 86.289 15.9865 86.945 15.9865ZM19.3401 48.6825V31.8825H23.2281V48.6825H19.3401ZM32.4951 48.8745C31.2791 48.8745 30.1831 48.6025 29.2071 48.0585C28.2311 47.4985 27.4551 46.7225 26.8791 45.7305C26.3191 44.7385 26.0391 43.5705 26.0391 42.2265C26.0391 40.8665 26.3191 39.6905 26.8791 38.6985C27.4551 37.7065 28.2311 36.9385 29.2071 36.3945C30.1831 35.8505 31.2791 35.5785 32.4951 35.5785C33.5831 35.5785 34.5351 35.8185 35.3511 36.2985C36.1671 36.7785 36.7991 37.5065 37.2471 38.4825C37.6951 39.4585 37.9191 40.7065 37.9191 42.2265C37.9191 43.7305 37.7031 44.9785 37.2711 45.9705C36.8391 46.9465 36.2151 47.6745 35.3991 48.1545C34.5991 48.6345 33.6311 48.8745 32.4951 48.8745ZM33.1431 45.8025C33.7511 45.8025 34.3031 45.6585 34.7991 45.3705C35.2951 45.0825 35.6871 44.6745 35.9751 44.1465C36.2791 43.6025 36.4311 42.9625 36.4311 42.2265C36.4311 41.4745 36.2791 40.8345 35.9751 40.3065C35.6871 39.7785 35.2951 39.3705 34.7991 39.0825C34.3031 38.7945 33.7511 38.6505 33.1431 38.6505C32.5191 38.6505 31.9591 38.7945 31.4631 39.0825C30.9671 39.3705 30.5671 39.7785 30.2631 40.3065C29.9751 40.8345 29.8311 41.4745 29.8311 42.2265C29.8311 42.9625 29.9751 43.6025 30.2631 44.1465C30.5671 44.6745 30.9671 45.0825 31.4631 45.3705C31.9591 45.6585 32.5191 45.8025 33.1431 45.8025ZM36.5271 48.6825V46.0425L36.5991 42.2025L36.3591 38.3865V30.8745H40.1031V48.6825H36.5271ZM49.9763 48.8745C48.5043 48.8745 47.2083 48.5865 46.0883 48.0105C44.9843 47.4345 44.1283 46.6505 43.5203 45.6585C42.9123 44.6505 42.6083 43.5065 42.6083 42.2265C42.6083 40.9305 42.9043 39.7865 43.4963 38.7945C44.1043 37.7865 44.9283 37.0025 45.9683 36.4425C47.0083 35.8665 48.1843 35.5785 49.4963 35.5785C50.7603 35.5785 51.8963 35.8505 52.9043 36.3945C53.9283 36.9225 54.7363 37.6905 55.3283 38.6985C55.9203 39.6905 56.2163 40.8825 56.2163 42.2745C56.2163 42.4185 56.2083 42.5865 56.1923 42.7785C56.1763 42.9545 56.1603 43.1225 56.1443 43.2825H45.6563V41.0985H54.1763L52.7363 41.7465C52.7363 41.0745 52.6003 40.4905 52.3283 39.9945C52.0563 39.4985 51.6803 39.1145 51.2003 38.8425C50.7203 38.5545 50.1603 38.4105 49.5203 38.4105C48.8803 38.4105 48.3123 38.5545 47.8163 38.8425C47.3363 39.1145 46.9603 39.5065 46.6883 40.0185C46.4163 40.5145 46.2803 41.1065 46.2803 41.7945V42.3705C46.2803 43.0745 46.4323 43.6985 46.7363 44.2425C47.0563 44.7705 47.4963 45.1785 48.0563 45.4665C48.6323 45.7385 49.3043 45.8745 50.0723 45.8745C50.7603 45.8745 51.3603 45.7705 51.8723 45.5625C52.4003 45.3545 52.8803 45.0425 53.3123 44.6265L55.3043 46.7865C54.7123 47.4585 53.9683 47.9785 53.0723 48.3465C52.1763 48.6985 51.1443 48.8745 49.9763 48.8745ZM66.2774 48.6825V46.1625L66.0374 45.6105V41.0985C66.0374 40.2985 65.7894 39.6745 65.2934 39.2265C64.8134 38.7785 64.0694 38.5545 63.0614 38.5545C62.3734 38.5545 61.6934 38.6665 61.0214 38.8905C60.3654 39.0985 59.8054 39.3865 59.3414 39.7545L57.9974 37.1385C58.7014 36.6425 59.5494 36.2585 60.5414 35.9865C61.5334 35.7145 62.5414 35.5785 63.5654 35.5785C65.5334 35.5785 67.0614 36.0425 68.1494 36.9705C69.2374 37.8985 69.7814 39.3465 69.7814 41.3145V48.6825H66.2774ZM62.3414 48.8745C61.3334 48.8745 60.4694 48.7065 59.7494 48.3705C59.0294 48.0185 58.4774 47.5465 58.0934 46.9545C57.7094 46.3625 57.5174 45.6985 57.5174 44.9625C57.5174 44.1945 57.7014 43.5225 58.0694 42.9465C58.4534 42.3705 59.0534 41.9225 59.8694 41.6025C60.6854 41.2665 61.7494 41.0985 63.0614 41.0985H66.4934V43.2825H63.4694C62.5894 43.2825 61.9814 43.4265 61.6454 43.7145C61.3254 44.0025 61.1654 44.3625 61.1654 44.7945C61.1654 45.2745 61.3494 45.6585 61.7174 45.9465C62.1014 46.2185 62.6214 46.3545 63.2774 46.3545C63.9014 46.3545 64.4614 46.2105 64.9574 45.9225C65.4534 45.6185 65.8134 45.1785 66.0374 44.6025L66.6134 46.3305C66.3414 47.1625 65.8454 47.7945 65.1254 48.2265C64.4054 48.6585 63.4774 48.8745 62.3414 48.8745ZM73.4339 42.8505L72.6899 31.8825H77.1539L76.4099 42.8505H73.4339ZM74.9219 48.8745C74.2499 48.8745 73.6979 48.6585 73.2659 48.2265C72.8339 47.7945 72.6179 47.2825 72.6179 46.6905C72.6179 46.0825 72.8339 45.5785 73.2659 45.1785C73.6979 44.7625 74.2499 44.5545 74.9219 44.5545C75.6099 44.5545 76.1619 44.7625 76.5779 45.1785C77.0099 45.5785 77.2259 46.0825 77.2259 46.6905C77.2259 47.2825 77.0099 47.7945 76.5779 48.2265C76.1619 48.6585 75.6099 48.8745 74.9219 48.8745Z" fill="white"/>
</svg>
